<svg xmlns="http://www.w3.org/2000/svg" viewBox="0 0 180 40">
  <!-- Ícono pequeño - colores claros para fondo oscuro -->
  <g transform="translate(2, 2)">
    <circle cx="18" cy="18" r="16" fill="none" stroke="#ffffff" stroke-width="2"/>
    <path d="M18 6 L24 14 L21 14 L21 26 L15 26 L15 14 L12 14 Z" fill="#81C784" transform="rotate(0, 18, 18)"/>
    <path d="M18 6 L24 14 L21 14 L21 26 L15 26 L15 14 L12 14 Z" fill="#81C784" transform="rotate(120, 18, 18)"/>
    <path d="M18 6 L24 14 L21 14 L21 26 L15 26 L15 14 L12 14 Z" fill="#81C784" transform="rotate(240, 18, 18)"/>
    <circle cx="18" cy="18" r="4" fill="#1B5E20"/>
    <circle cx="18" cy="18" r="2.5" fill="#81C784"/>
  </g>
  
  <!-- Texto en blanco para fondo oscuro -->
  <text x="44" y="27" font-family="Arial, sans-serif" font-size="22" font-weight="bold" fill="#ffffff">IO</text>
  <text x="72" y="27" font-family="Arial, sans-serif" font-size="22" font-weight="300" fill="#A5D6A7">CONTROL</text>
</svg>
