<svg xmlns="http://www.w3.org/2000/svg" viewBox="0 0 180 40">
  <defs>
    <linearGradient id="grad1" x1="0%" y1="0%" x2="100%" y2="100%">
      <stop offset="0%" style="stop-color:#2E7D32"/>
      <stop offset="100%" style="stop-color:#1B5E20"/>
    </linearGradient>
  </defs>
  
  <!-- Ícono pequeño -->
  <g transform="translate(2, 2)">
    <circle cx="18" cy="18" r="16" fill="none" stroke="url(#grad1)" stroke-width="2"/>
    <path d="M18 6 L24 14 L21 14 L21 26 L15 26 L15 14 L12 14 Z" fill="url(#grad1)" transform="rotate(0, 18, 18)"/>
    <path d="M18 6 L24 14 L21 14 L21 26 L15 26 L15 14 L12 14 Z" fill="url(#grad1)" transform="rotate(120, 18, 18)"/>
    <path d="M18 6 L24 14 L21 14 L21 26 L15 26 L15 14 L12 14 Z" fill="url(#grad1)" transform="rotate(240, 18, 18)"/>
    <circle cx="18" cy="18" r="4" fill="#ffffff"/>
    <circle cx="18" cy="18" r="2.5" fill="url(#grad1)"/>
  </g>
  
  <!-- Texto -->
  <text x="44" y="27" font-family="Arial, sans-serif" font-size="22" font-weight="bold" fill="url(#grad1)">IO</text>
  <text x="72" y="27" font-family="Arial, sans-serif" font-size="22" font-weight="300" fill="#333333">CONTROL</text>
</svg>
